<svg width="20" height="15" viewBox="0 0 20 15" fill="none" xmlns="http://www.w3.org/2000/svg">
<path d="M19.25 2.0003L6.75 2.0003C6.3358 2.0003 6 1.6645 6 1.2503C6 0.8706 6.2822 0.5568 6.6482 0.5072L6.75 0.500299L19.25 0.500299C19.6642 0.500299 20 0.8361 20 1.2503C20 1.63 19.7178 1.9438 19.3518 1.9935L19.25 2.0003ZM19.25 8.5003L0.75 8.5003C0.3358 8.5003 0 8.1645 0 7.7503C0 7.3706 0.2822 7.0568 0.648199 7.0072L0.75 7.0003L19.25 7.0003C19.6642 7.0003 20 7.3361 20 7.7503C20 8.13 19.7178 8.4438 19.3518 8.4935L19.25 8.5003ZM19.25 14.9971L3.75 14.9971C3.3358 14.9971 3 14.6613 3 14.2471C3 13.8674 3.2822 13.5536 3.6482 13.5039L3.75 13.4971L19.25 13.4971C19.6642 13.4971 20 13.8329 20 14.2471C20 14.6268 19.7178 14.9406 19.3518 14.9902L19.25 14.9971Z" fill="#5F5F5F"/>
</svg>
