<svg width="21" height="18" viewBox="0 0 21 18" fill="none" xmlns="http://www.w3.org/2000/svg">
<path d="M3.02393 3.25C3.02393 2.83579 3.35971 2.5 3.77393 2.5H17.2297C17.6439 2.5 17.9797 2.83579 17.9797 3.25V6.75C17.9797 7.1642 17.6439 7.5 17.2297 7.5H3.77393C3.35971 7.5 3.02393 7.1642 3.02393 6.75V3.25ZM4.52393 4V6H16.4797V4H4.52393ZM12.7297 8.979C12.3155 8.979 11.9797 9.3148 11.9797 9.729V14.229C11.9797 14.6432 12.3155 14.979 12.7297 14.979H17.2297C17.6439 14.979 17.9797 14.6432 17.9797 14.229V9.729C17.9797 9.3148 17.6439 8.979 17.2297 8.979H12.7297ZM13.4797 13.479V10.479H16.4797V13.479H13.4797ZM3.02393 10.25C3.02393 9.8358 3.35971 9.5 3.77393 9.5H9.75C10.1642 9.5 10.5 9.8358 10.5 10.25C10.5 10.6642 10.1642 11 9.75 11H3.77393C3.35971 11 3.02393 10.6642 3.02393 10.25ZM3.77393 13C3.35971 13 3.02393 13.3358 3.02393 13.75C3.02393 14.1642 3.35971 14.5 3.77393 14.5H9.75C10.1642 14.5 10.5 14.1642 10.5 13.75C10.5 13.3358 10.1642 13 9.75 13H3.77393ZM0.5 2.75C0.5 1.23122 1.73122 0 3.25 0H17.75C19.2688 0 20.5 1.23122 20.5 2.75V15.25C20.5 16.7688 19.2688 18 17.75 18H3.25C1.73122 18 0.5 16.7688 0.5 15.25V2.75ZM3.25 1.5C2.55964 1.5 2 2.05964 2 2.75V15.25C2 15.9404 2.55964 16.5 3.25 16.5H17.75C18.4404 16.5 19 15.9404 19 15.25V2.75C19 2.05964 18.4404 1.5 17.75 1.5H3.25Z" fill="#5F5F5F"/>
</svg>
