<svg width="22" height="20" viewBox="0 0 22 20" fill="none" xmlns="http://www.w3.org/2000/svg">
<path d="M4 4C4 2.61929 5.11929 1.5 6.5 1.5C7.88071 1.5 9 2.61929 9 4C9 5.38071 7.88071 6.5 6.5 6.5C5.11929 6.5 4 5.38071 4 4ZM6.5 0C4.29086 0 2.5 1.79086 2.5 4C2.5 6.20914 4.29086 8 6.5 8C8.7091 8 10.5 6.20914 10.5 4C10.5 1.79086 8.7091 0 6.5 0ZM14 5C14 4.17157 14.6716 3.5 15.5 3.5C16.3284 3.5 17 4.17157 17 5C17 5.82843 16.3284 6.5 15.5 6.5C14.6716 6.5 14 5.82843 14 5ZM15.5 2C13.8431 2 12.5 3.34315 12.5 5C12.5 6.65685 13.8431 8 15.5 8C17.1569 8 18.5 6.65685 18.5 5C18.5 3.34315 17.1569 2 15.5 2ZM2.75 10C1.50736 10 0.5 11.0074 0.5 12.25V12.5011V12.5022L0.50001 12.5048L0.50007 12.5111L0.50035 12.5277C0.50064 12.5406 0.50117 12.5571 0.5021 12.5771C0.50396 12.6169 0.50745 12.6705 0.51398 12.7358C0.52701 12.8661 0.55233 13.045 0.60165 13.2564C0.69995 13.6776 0.89654 14.2404 1.29183 14.8051C2.11066 15.9749 3.67178 17 6.5 17C7.86897 17 8.9411 16.7598 9.7758 16.3793C9.6268 15.8851 9.535 15.366 9.5082 14.8299C8.8633 15.2108 7.91267 15.5 6.5 15.5C4.07822 15.5 3.01434 14.6501 2.52067 13.9449C2.25971 13.5721 2.12818 13.1974 2.06241 12.9155C2.0297 12.7753 2.014 12.6612 2.00653 12.5865C2.00281 12.5493 2.00117 12.5222 2.00047 12.5072L2 12.4947V12.25C2 11.8358 2.33579 11.5 2.75 11.5H10.2322C10.4807 11.0233 10.7865 10.5813 11.1405 10.1831C10.8674 10.0653 10.5663 10 10.25 10H2.75ZM21.5 14.5C21.5 17.5376 19.0376 20 16 20C12.9624 20 10.5 17.5376 10.5 14.5C10.5 11.4624 12.9624 9 16 9C19.0376 9 21.5 11.4624 21.5 14.5ZM19.3536 12.1464C19.1583 11.9512 18.8417 11.9512 18.6464 12.1464L15 15.7929L13.3536 14.1464C13.1583 13.9512 12.8417 13.9512 12.6464 14.1464C12.4512 14.3417 12.4512 14.6583 12.6464 14.8536L14.6464 16.8536C14.8417 17.0488 15.1583 17.0488 15.3536 16.8536L19.3536 12.8536C19.5488 12.6583 19.5488 12.3417 19.3536 12.1464Z" fill="#5F5F5F"/>
</svg>
