<svg width="68" height="44" viewBox="0 0 68 44" fill="none" xmlns="http://www.w3.org/2000/svg">
<path d="M1.55737 42.4958L17.2131 18.9711" stroke="#16B35E" stroke-width="1.33341"/>
<path d="M17.2134 18.9711C18.3228 17.3041 20.9046 17.8458 21.2464 19.8175" stroke="#16B35E" stroke-width="1.33341"/>
<path d="M21.2463 19.8174C21.6746 22.2878 25.2424 22.2542 25.6236 19.7763" stroke="#16B35E" stroke-width="1.33341"/>
<path d="M25.6238 19.7763L28.2246 2.87741" stroke="#16B35E" stroke-width="1.33341"/>
<path d="M28.2244 2.8774C28.5541 0.735126 31.4559 0.294992 32.4092 2.24261" stroke="#16B35E" stroke-width="1.33341"/>
<path d="M32.4094 2.24261L45.8444 29.6879" stroke="#16B35E" stroke-width="1.33341"/>
<path d="M45.8445 29.6879C46.5982 31.2276 48.7455 31.3647 49.6899 29.9332" stroke="#16B35E" stroke-width="1.33341"/>
<path d="M49.6897 29.9333L66 5.21143" stroke="#16B35E" stroke-width="1.33341"/>
<path d="M3 42.5C3 43.3283 2.32863 44 1.50019 44C0.671373 44 0 43.3283 0 42.5C0 41.6717 0.671371 41 1.50019 41C2.32863 41 3 41.6717 3 42.5Z" fill="#16B25E"/>
<path d="M68 4.5C68 5.32833 67.3286 6 66.5002 6C65.6714 6 65 5.32833 65 4.5C65 3.67167 65.6714 3 66.5002 3C67.3286 3 68 3.67167 68 4.5Z" fill="#16B25E"/>
</svg>
