<svg width="336" height="83" viewBox="0 0 336 83" fill="none" xmlns="http://www.w3.org/2000/svg">
<g filter="url(#filter0_d_56_211)">
<rect x="4" y="4" width="328" height="75" rx="5" fill="white"/>
<path d="M20.022 25H21.268V17.608L24.334 25H25.398L28.45 17.608V25H29.71V15.2H28.17L24.866 23.152L21.562 15.2H20.022V25ZM34.8608 25.112C36.9468 25.112 38.4588 23.586 38.4588 21.472C38.4588 19.358 36.9468 17.832 34.8608 17.832C32.7608 17.832 31.2768 19.358 31.2768 21.472C31.2768 23.586 32.7608 25.112 34.8608 25.112ZM34.8608 24.048C33.4468 24.048 32.4948 22.984 32.4948 21.472C32.4948 19.96 33.4468 18.896 34.8608 18.896C36.2748 18.896 37.2268 19.96 37.2268 21.472C37.2268 22.984 36.2748 24.048 34.8608 24.048ZM39.9816 25H41.1716V21.906C41.1716 20.044 42.0116 18.91 43.3276 18.91C44.3216 18.91 44.9236 19.596 44.9236 20.548V25H46.1136V20.324C46.1136 18.826 45.0636 17.832 43.5936 17.832C42.5156 17.832 41.6616 18.434 41.1716 19.274V17.944H39.9816V25ZM51.5403 24.944L51.4563 23.852C51.1763 23.992 50.8543 24.034 50.5743 24.034C49.9583 24.034 49.5383 23.67 49.5383 22.928V18.994H51.4283V17.944H49.5383V15.802H48.3483V17.944H47.0323V18.994H48.3483V22.886C48.3483 24.44 49.2303 25.112 50.4343 25.112C50.8123 25.112 51.1903 25.07 51.5403 24.944ZM53.0519 25H54.2419V21.976C54.2419 20.086 55.0819 18.91 56.3839 18.91C57.4619 18.91 58.1059 19.54 58.1059 20.576V25H59.2959V20.352C59.2959 18.826 58.2459 17.832 56.6499 17.832C55.6139 17.832 54.7599 18.322 54.2419 19.33V15.088H53.0519V25ZM61.2277 25H62.4177V15.088H61.2277V25ZM68.9929 17.944L66.9209 23.348L64.8489 17.944H63.5609L66.3189 24.902L65.2969 27.548H66.5149L70.2109 17.944H68.9929ZM74.7915 25H76.0655V20.478H80.1535V19.33H76.0655V16.334H81.0635V15.2H74.7915V25ZM88.0375 21.15C88.0375 19.33 86.7495 17.832 84.6635 17.832C82.5355 17.832 81.2475 19.47 81.2475 21.472C81.2475 23.474 82.5775 25.112 84.6915 25.112C86.3155 25.112 87.4915 24.314 87.8415 22.942L86.7215 22.676C86.5115 23.558 85.7695 24.062 84.6915 24.062C83.4175 24.062 82.5215 23.124 82.4375 21.696H88.0095C88.0235 21.57 88.0375 21.318 88.0375 21.15ZM82.5075 20.702C82.7455 19.526 83.5575 18.826 84.6635 18.826C85.9095 18.826 86.6655 19.624 86.7775 20.702H82.5075ZM95.9535 21.15C95.9535 19.33 94.6655 17.832 92.5795 17.832C90.4515 17.832 89.1635 19.47 89.1635 21.472C89.1635 23.474 90.4935 25.112 92.6075 25.112C94.2315 25.112 95.4075 24.314 95.7575 22.942L94.6375 22.676C94.4275 23.558 93.6855 24.062 92.6075 24.062C91.3335 24.062 90.4375 23.124 90.3535 21.696H95.9255C95.9395 21.57 95.9535 21.318 95.9535 21.15ZM90.4235 20.702C90.6615 19.526 91.4735 18.826 92.5795 18.826C93.8255 18.826 94.5815 19.624 94.6935 20.702H90.4235ZM99.7832 25.112C101.337 25.112 102.373 24.244 102.373 23.012C102.387 20.1 98.2992 21.206 98.2992 19.694C98.2992 19.134 98.8032 18.812 99.6012 18.812C100.357 18.812 101.057 19.274 101.253 20.002L102.247 19.568C101.953 18.532 100.875 17.832 99.6292 17.832C98.1172 17.832 97.1512 18.588 97.1512 19.708C97.1512 22.382 101.211 21.22 101.211 23.026C101.211 23.6 100.651 24.104 99.7832 24.104C98.6912 24.104 98.1312 23.432 97.8652 22.606L96.8432 23.054C97.1512 24.048 98.0752 25.112 99.7832 25.112Z" fill="#909090"/>
<path d="M22.86 68.08C24.85 68.08 26.3 66.58 26.3 64.5C26.3 62.42 24.85 60.92 22.86 60.92C20.86 60.92 19.41 62.42 19.41 64.5C19.41 66.58 20.86 68.08 22.86 68.08ZM22.85 67.26C21.4 67.26 20.34 66.1 20.34 64.5C20.34 62.9 21.4 61.73 22.85 61.73C24.32 61.73 25.37 62.9 25.37 64.5C25.37 66.1 24.32 67.26 22.85 67.26ZM29.6148 68.08C30.7748 68.08 31.6148 67.47 31.8348 66.43L31.0048 66.26C30.8648 66.93 30.3448 67.32 29.6348 67.32C28.6448 67.32 28.0048 66.59 28.0048 65.48C28.0048 64.37 28.6448 63.64 29.6348 63.64C30.3448 63.64 30.8748 64.08 30.9848 64.69L31.8248 64.52C31.6448 63.52 30.7848 62.88 29.6148 62.88C28.1148 62.88 27.1148 63.92 27.1148 65.48C27.1148 67.04 28.1148 68.08 29.6148 68.08ZM35.5048 67.96L35.4448 67.18C35.2448 67.28 35.0148 67.31 34.8148 67.31C34.3748 67.31 34.0748 67.05 34.0748 66.52V63.71H35.4248V62.96H34.0748V61.43H33.2248V62.96H32.2848V63.71H33.2248V66.49C33.2248 67.6 33.8548 68.08 34.7148 68.08C34.9848 68.08 35.2548 68.05 35.5048 67.96Z" fill="#909090"/>
<path d="M84.73 68H85.62V62.45L89.15 68H90.16V61H89.27V66.57L85.74 61H84.73V68ZM93.8545 68.08C95.3445 68.08 96.4245 66.99 96.4245 65.48C96.4245 63.97 95.3445 62.88 93.8545 62.88C92.3545 62.88 91.2945 63.97 91.2945 65.48C91.2945 66.99 92.3545 68.08 93.8545 68.08ZM93.8545 67.32C92.8445 67.32 92.1645 66.56 92.1645 65.48C92.1645 64.4 92.8445 63.64 93.8545 63.64C94.8645 63.64 95.5445 64.4 95.5445 65.48C95.5445 66.56 94.8645 67.32 93.8545 67.32ZM98.6263 68H99.4963L101.346 62.96H100.466L99.0563 67.01L97.6563 62.96H96.7863L98.6263 68Z" fill="#909090"/>
<path d="M150.73 68H152.81C154.77 68 156.32 66.75 156.32 64.5C156.32 62.25 154.77 61 152.81 61H150.73V68ZM151.63 67.18V61.81H152.78C154.13 61.81 155.38 62.59 155.38 64.5C155.38 66.41 154.13 67.18 152.78 67.18H151.63ZM161.979 65.25C161.979 63.95 161.059 62.88 159.569 62.88C158.049 62.88 157.129 64.05 157.129 65.48C157.129 66.91 158.079 68.08 159.589 68.08C160.749 68.08 161.589 67.51 161.839 66.53L161.039 66.34C160.889 66.97 160.359 67.33 159.589 67.33C158.679 67.33 158.039 66.66 157.979 65.64H161.959C161.969 65.55 161.979 65.37 161.979 65.25ZM158.029 64.93C158.199 64.09 158.779 63.59 159.569 63.59C160.459 63.59 160.999 64.16 161.079 64.93H158.029ZM165.283 68.08C166.443 68.08 167.283 67.47 167.503 66.43L166.673 66.26C166.533 66.93 166.013 67.32 165.303 67.32C164.313 67.32 163.673 66.59 163.673 65.48C163.673 64.37 164.313 63.64 165.303 63.64C166.013 63.64 166.543 64.08 166.653 64.69L167.493 64.52C167.313 63.52 166.453 62.88 165.283 62.88C163.783 62.88 162.783 63.92 162.783 65.48C162.783 67.04 163.783 68.08 165.283 68.08Z" fill="#909090"/>
<path d="M216.25 67.17V67.98C216.41 68.02 216.67 68.06 216.87 68.06C217.93 68.06 218.66 67.42 218.66 65.99V61H217.77V66.02C217.77 66.93 217.45 67.25 216.77 67.25C216.6 67.25 216.4 67.22 216.25 67.17ZM221.939 62.88C220.879 62.88 220.049 63.53 219.899 64.53L220.689 64.68C220.759 64 221.249 63.59 221.939 63.59C222.679 63.59 223.169 64.03 223.169 64.72V64.82L222.189 64.93C220.579 65.09 219.789 65.62 219.789 66.59C219.789 67.46 220.479 68.08 221.489 68.08C222.219 68.08 222.879 67.72 223.169 67.14V68H224.009V64.77C224.009 63.6 223.159 62.88 221.939 62.88ZM221.619 67.38C221.039 67.38 220.639 67.05 220.639 66.58C220.639 66.05 221.169 65.7 222.189 65.59L223.169 65.48V65.72C223.169 66.73 222.599 67.38 221.619 67.38ZM225.391 68H226.241V65.79C226.241 64.46 226.841 63.65 227.781 63.65C228.491 63.65 228.921 64.14 228.921 64.82V68H229.771V64.66C229.771 63.59 229.021 62.88 227.971 62.88C227.201 62.88 226.591 63.31 226.241 63.91V62.96H225.391V68Z" fill="#909090"/>
<path d="M279.73 68H280.64V64.77H283.56V63.95H280.64V61.81H284.21V61H279.73V68ZM286.521 62.88C285.461 62.88 284.631 63.53 284.481 64.53L285.271 64.68C285.341 64 285.831 63.59 286.521 63.59C287.261 63.59 287.751 64.03 287.751 64.72V64.82L286.771 64.93C285.161 65.09 284.371 65.62 284.371 66.59C284.371 67.46 285.061 68.08 286.071 68.08C286.801 68.08 287.461 67.72 287.751 67.14V68H288.591V64.77C288.591 63.6 287.741 62.88 286.521 62.88ZM286.201 67.38C285.621 67.38 285.221 67.05 285.221 66.58C285.221 66.05 285.751 65.7 286.771 65.59L287.751 65.48V65.72C287.751 66.73 287.181 67.38 286.201 67.38ZM292.463 68.08C294.033 68.08 294.893 66.96 294.893 65.48C294.893 64 294.033 62.88 292.473 62.88C291.803 62.88 291.143 63.21 290.823 63.68V60.92H289.973V68H290.823V67.27C291.053 67.73 291.723 68.08 292.463 68.08ZM292.383 67.32C291.393 67.32 290.753 66.59 290.753 65.48C290.753 64.37 291.393 63.64 292.383 63.64C293.373 63.64 294.023 64.37 294.023 65.48C294.023 66.59 293.373 67.32 292.383 67.32Z" fill="#909090"/>
<rect x="41" y="40" width="19" height="29" fill="#8DB34F"/>
<rect x="107" y="49" width="19" height="20" fill="#8DB24F"/>
<rect x="173" y="33" width="19" height="36" fill="#8DB24F"/>
<rect x="236" y="44" width="19" height="25" fill="#8DB24F"/>
<rect x="301" y="33" width="19" height="36" fill="#8DB24F"/>
</g>
<defs>
<filter id="filter0_d_56_211" x="0" y="0" width="336" height="83" filterUnits="userSpaceOnUse" color-interpolation-filters="sRGB">
<feFlood flood-opacity="0" result="BackgroundImageFix"/>
<feColorMatrix in="SourceAlpha" type="matrix" values="0 0 0 0 0 0 0 0 0 0 0 0 0 0 0 0 0 0 127 0" result="hardAlpha"/>
<feOffset/>
<feGaussianBlur stdDeviation="2"/>
<feComposite in2="hardAlpha" operator="out"/>
<feColorMatrix type="matrix" values="0 0 0 0 0 0 0 0 0 0 0 0 0 0 0 0 0 0 0.25 0"/>
<feBlend mode="normal" in2="BackgroundImageFix" result="effect1_dropShadow_56_211"/>
<feBlend mode="normal" in="SourceGraphic" in2="effect1_dropShadow_56_211" result="shape"/>
</filter>
</defs>
</svg>
