<svg width="20" height="20" viewBox="0 0 20 20" fill="none" xmlns="http://www.w3.org/2000/svg">
<path d="M18.2058 1.79409C16.9247 0.513032 14.8477 0.513087 13.5668 1.79423L2.61253 12.7497C2.24006 13.1223 1.97826 13.5908 1.85625 14.1032L0.85196 18.3212C0.796667 18.5535 0.865811 18.7978 1.03462 18.9666C1.20345 19.1354 1.44776 19.2045 1.68 19.1492L5.89782 18.145C6.41042 18.0229 6.87909 17.761 7.25167 17.3884L18.2059 6.43289C19.4868 5.15186 19.4868 3.07504 18.2058 1.79409ZM14.5391 2.76644C15.283 2.02233 16.4895 2.0223 17.2335 2.76636C17.9775 3.51037 17.9776 4.71663 17.2336 5.46068L16.4166 6.27784L13.7221 3.58344L14.5391 2.76644ZM12.7499 4.55577L15.4444 7.25016L6.27934 16.4162C6.0867 16.6089 5.84437 16.7443 5.57934 16.8074L2.44833 17.5529L3.19386 14.4217C3.25694 14.1567 3.39229 13.9145 3.58485 13.7219L12.7499 4.55577Z" fill="white"/>
</svg>
