<svg width="21" height="21" viewBox="0 0 21 21" fill="none" xmlns="http://www.w3.org/2000/svg">
<path d="M8.5911 0.513006C9.4947 0.146706 10.5053 0.146706 11.4089 0.513006L18.9075 3.55298C19.5679 3.82071 20 4.46216 20 5.17477V10.8105C19.5557 10.3842 19.051 10.0204 18.5 9.7332V5.77316L10.7503 8.7654V11.0635C10.0581 11.8041 9.5371 12.7067 9.2503 13.7083V8.7641L1.5 5.75003V14.8275C1.5 14.9293 1.56173 15.0209 1.65607 15.0592L9.1547 18.0991C9.1863 18.112 9.2183 18.1241 9.2503 18.1354V18.1342L9.439 18.2109C9.4976 18.2348 9.5575 18.2548 9.618 18.2709C9.8663 18.7973 10.1832 19.2849 10.5572 19.7224C9.898 19.8214 9.2187 19.7437 8.5911 19.4892L1.09252 16.4493C0.43211 16.1815 0 15.5401 0 14.8275V5.17477C0 4.46216 0.43211 3.82071 1.09252 3.55298L8.5911 0.513006ZM10.8453 1.90312C10.3032 1.68334 9.6968 1.68334 9.1547 1.90312L7.24127 2.67882L14.7684 5.60604L17.4373 4.57554L10.8453 1.90312ZM2.58998 4.56448L10.0013 7.44667L12.6917 6.40787L5.21503 3.50027L2.58998 4.56448ZM15.5 21.001C18.5376 21.001 21 18.5385 21 15.501C21 12.4634 18.5376 10.001 15.5 10.001C12.4624 10.001 10 12.4634 10 15.501C10 18.5385 12.4624 21.001 15.5 21.001ZM14.5 16.7939L18.1464 13.1474C18.3417 12.9522 18.6583 12.9522 18.8536 13.1474C19.0488 13.3427 19.0488 13.6593 18.8536 13.8545L14.8536 17.8545C14.6583 18.0498 14.3417 18.0498 14.1464 17.8545L12.1464 15.8545C11.9512 15.6593 11.9512 15.3427 12.1464 15.1474C12.3417 14.9522 12.6583 14.9522 12.8536 15.1474L14.5 16.7939Z" fill="#5F5F5F"/>
</svg>
