<svg width="19" height="20" viewBox="0 0 19 20" fill="none" xmlns="http://www.w3.org/2000/svg">
<path d="M13.7489 0L18.3027 0.000519991L18.403 0.0144401L18.5018 0.0420499L18.5621 0.0676C18.6413 0.10246 18.7155 0.15315 18.7808 0.21836L18.8215 0.2624L18.865 0.31878L18.9192 0.4089L18.9579 0.49922L18.977 0.5633L18.9906 0.6273L19 0.7215L19.0004 5.25389C19.0004 5.6681 18.6647 6.00389 18.2504 6.00389C17.8708 6.00389 17.557 5.72174 17.5073 5.35566L17.5004 5.25389L17.5 2.559L11.0607 8.9997C10.7944 9.266 10.3777 9.2902 10.0841 9.0724L10 8.9998L6.96969 6.08924L1.28033 11.7786C0.987441 12.0715 0.51256 12.0715 0.21967 11.7786C-0.0465996 11.5123 -0.0707998 11.0957 0.14705 10.8021L0.21967 10.7179L6.43935 4.49826C6.70561 4.23199 7.1223 4.20779 7.4159 4.42563L7.5 4.49825L10.5303 7.40877L16.438 1.5H13.7489C13.3692 1.5 13.0554 1.21785 13.0058 0.85177L12.9989 0.75C12.9989 0.3703 13.2811 0.05651 13.6472 0.00685L13.7489 0ZM0.75 15C1.16421 15 1.5 15.3358 1.5 15.75V19.25C1.5 19.6642 1.16421 20 0.75 20C0.33579 20 3.37149e-07 19.6642 3.37149e-07 19.25V15.75C3.37149e-07 15.3358 0.33579 15 0.75 15ZM6.5 11.75C6.5 11.3358 6.16421 11 5.75 11C5.33579 11 5 11.3358 5 11.75V19.25C5 19.6642 5.33579 20 5.75 20C6.16421 20 6.5 19.6642 6.5 19.25V11.75ZM10.75 13C11.1642 13 11.5 13.3358 11.5 13.75V19.25C11.5 19.6642 11.1642 20 10.75 20C10.3358 20 10 19.6642 10 19.25V13.75C10 13.3358 10.3358 13 10.75 13ZM16.5 8.75C16.5 8.3358 16.1642 8 15.75 8C15.3358 8 15 8.3358 15 8.75V19.25C15 19.6642 15.3358 20 15.75 20C16.1642 20 16.5 19.6642 16.5 19.25V8.75Z" fill="#5F5F5F"/>
</svg>
